<?xml version="1.0" standalone="no"?><!DOCTYPE svg PUBLIC "-//W3C//DTD SVG 1.1//EN" "http://www.w3.org/Graphics/SVG/1.1/DTD/svg11.dtd"><svg t="1759371671008" class="icon" viewBox="0 0 1024 1024" version="1.1" xmlns="http://www.w3.org/2000/svg" p-id="21715" xmlns:xlink="http://www.w3.org/1999/xlink" width="200" height="200"><path d="M985.6 486.4l-448-448c-12.8-6.4-38.4-6.4-51.2 0l-448 448c-6.4 12.8-12.8 44.8 0 51.2 12.8 6.4 38.4 6.4 51.2 0L512 108.8l422.4 428.8c6.4 6.4 19.2 6.4 25.6 6.4 6.4 0 19.2 0 25.6-12.8 12.8-12.8 12.8-32 0-44.8zM832 620.8c-19.2 0-32 12.8-32 32V896h-576v-236.8c0-19.2-12.8-32-32-32s-32 12.8-32 25.6v275.2c0 19.2 12.8 32 32 32h640c19.2 0 32-12.8 32-25.6v-275.2c0-19.2-12.8-38.4-32-38.4z" p-id="21716" fill="#ffffff"></path><path d="M704 550.4c0-19.2-6.4-32-25.6-38.4-19.2-6.4-38.4 6.4-38.4 25.6-12.8 57.6-64 102.4-128 102.4s-115.2-38.4-128-102.4c-6.4-19.2-19.2-25.6-38.4-25.6-12.8 0-25.6 19.2-25.6 32C339.2 640 422.4 704 512 704s172.8-64 192-153.6z" p-id="21717" fill="#ffffff"></path></svg>