<?xml version="1.0" standalone="no"?><!DOCTYPE svg PUBLIC "-//W3C//DTD SVG 1.1//EN" "http://www.w3.org/Graphics/SVG/1.1/DTD/svg11.dtd"><svg t="1759371577451" class="icon" viewBox="0 0 1024 1024" version="1.1" xmlns="http://www.w3.org/2000/svg" p-id="20631" xmlns:xlink="http://www.w3.org/1999/xlink" width="200" height="200"><path d="M912 848H768V528c0-140.8-115.2-256-256-256S256 387.2 256 528v320H112c-17.6 0-32 14.4-32 32s14.4 32 32 32h800c17.6 0 32-14.4 32-32s-14.4-32-32-32z m-592 0V528c0-105.6 86.4-192 192-192s192 86.4 192 192v320H320z" fill="#ffffff" p-id="20632"></path><path d="M416 528c-17.6 0-32 14.4-32 32v192c0 17.6 14.4 32 32 32s32-14.4 32-32V560c0-17.6-14.4-32-32-32z m96-320c17.6 0 32-14.4 32-32v-64c0-17.6-14.4-32-32-32s-32 14.4-32 32v64c0 17.6 14.4 32 32 32z m243.2 65.6l44.8-44.8c12.8-12.8 12.8-32 0-44.8-12.8-12.8-32-12.8-44.8 0l-44.8 44.8c-12.8 12.8-12.8 32 0 44.8 12.8 12.8 33.6 12.8 44.8 0z m-480 0c12.8 12.8 32 12.8 44.8 0 12.8-12.8 12.8-32 0-44.8L275.2 184c-12.8-12.8-32-12.8-44.8 0-12.8 12.8-12.8 32 0 44.8l44.8 44.8zM112 480h64c17.6 0 32-14.4 32-32s-14.4-32-32-32h-64c-17.6 0-32 14.4-32 32s14.4 32 32 32z m736 0h64c17.6 0 32-14.4 32-32s-14.4-32-32-32h-64c-17.6 0-32 14.4-32 32s14.4 32 32 32z" fill="#ffffff" p-id="20633"></path></svg>